<svg width="21" height="21" viewBox="0 0 21 21" fill="none" xmlns="http://www.w3.org/2000/svg">
<path d="M7 17.4999V7.99988C7 6.89531 7.89543 5.99988 9 5.99988H17.5C18.6046 5.99988 19.5 6.89531 19.5 7.99988V17.4999C19.5 18.6044 18.6046 19.4999 17.5 19.4999H9C7.89543 19.4999 7 18.6044 7 17.4999Z" fill="white" stroke="white" stroke-width="2"/>
<path d="M11.5 15.9999V9.99988L16 12.9999L11.5 15.9999Z" fill="#1E1E1E"/>
<path d="M5 14.9999V14.9999C4.01985 15.2416 3.04778 14.5758 2.91902 13.5745L1.78952 4.79116C1.64863 3.69561 2.42254 2.69329 3.51809 2.5524L11.1931 1.56543C12.3144 1.42123 13.3323 2.23443 13.4392 3.35993L13.5 3.99988" stroke="white" stroke-width="2"/>
</svg>
