<svg width="21" height="21" viewBox="0 0 21 21" fill="none" xmlns="http://www.w3.org/2000/svg">
<path d="M7 17.5V8C7 6.89543 7.89543 6 9 6H17.5C18.6046 6 19.5 6.89543 19.5 8V17.5C19.5 18.6046 18.6046 19.5 17.5 19.5H9C7.89543 19.5 7 18.6046 7 17.5Z" stroke="#838383" stroke-width="2"/>
<path d="M11.5 16V10L16 13L11.5 16Z" fill="#838383"/>
<path d="M5 15V15C4.01985 15.2417 3.04778 14.5759 2.91902 13.5746L1.78952 4.79128C1.64863 3.69573 2.42254 2.69341 3.51809 2.55253L11.1931 1.56555C12.3144 1.42135 13.3323 2.23455 13.4392 3.36006L13.5 4" stroke="#838383" stroke-width="2"/>
</svg>
